# xmcd
#
# Track frame offsets:
#	150
#	19240
#	37596
#	57115
#	64802
#	86964
#	96033
#	114042
#	130980
#	154016
#	169690
#	186239
#
# Disc length: 2745 seconds
#
# Revision: 0
# Processed by: cddbd v1.5.1PL2 Copyright (c) Steve Scherf et al.
# Submitted via: dBpowerAMP V4.0
#
DISCID=910ab70c
DTITLE=Roberto Lopez Project - Que Pasa?
DYEAR=1900
DGENRE=Latin
TTITLE0=Oye Latino
TTITLE1=Resistencia
TTITLE2=Que Pasa?
TTITLE3=Candelaria
TTITLE4=Canto mi Canto
TTITLE5=Yemaya se Ima
TTITLE6=Ayer Sone
TTITLE7=Somos Ritmo
TTITLE8=Psicodeli-Aminoacido
TTITLE9=A Usted
TTITLE10=Un Lugar
TTITLE11=Mi Porro
EXTD=
EXTT0=
EXTT1=
EXTT2=
EXTT3=
EXTT4=
EXTT5=
EXTT6=
EXTT7=
EXTT8=
EXTT9=
EXTT10=
EXTT11=
PLAYORDER=
